<?xml version="1.0" encoding="utf-8"?>
<!-- Generator: Adobe Illustrator 27.2.0, SVG Export Plug-In . SVG Version: 6.00 Build 0)  -->
<svg version="1.1" id="Layer_1" xmlns="http://www.w3.org/2000/svg" xmlns:xlink="http://www.w3.org/1999/xlink" x="0px" y="0px"
	 viewBox="0 0 512 512" style="enable-background:new 0 0 512 512;" xml:space="preserve">
<style type="text/css">
	.st0{fill:url(#SVGID_1_);}
	.st1{fill:#808080;}
	.st2{fill:url(#SVGID_00000126288123608368439310000001461867331572496263_);}
	.st3{fill:url(#SVGID_00000114042490258389591370000008508590807011745671_);}
	.st4{fill:url(#SVGID_00000083076029124483058900000015232799468551405233_);}
	.st5{fill:url(#SVGID_00000124857365623343428380000004379794300978793871_);}
	.st6{fill:url(#SVGID_00000060012868296639391990000000492806070713589135_);}
	.st7{fill:#666666;}
	.st8{fill:url(#SVGID_00000132792320721207514600000011915085987217362837_);}
</style>
<g>
	
		<linearGradient id="SVGID_1_" gradientUnits="userSpaceOnUse" x1="6.3834" y1="6.0408" x2="6.5084" y2="6.0408" gradientTransform="matrix(2595.749 3342.7273 -3342.7273 2595.749 3735.615 -36963.1875)">
		<stop  offset="0" style="stop-color:#3AC8F3"/>
		<stop  offset="1" style="stop-color:#1B9DE3"/>
	</linearGradient>
	<path class="st0" d="M300.27,0.01c-46.67,0.34-99.8,12.06-144.84,40.85C95.39,79.24,49.74,147.98,29.25,203.35
		s-15.82,97.39-9.27,128.52s14.98,51.35,24.51,63.29c9.53,11.93,20.17,15.56,30.87,15.5c10.7-0.07,21.46-3.83,34.24-13.55
		c12.77-9.73,27.56-25.42,39.81-38c12.26-12.58,21.98-22.05,30.09-26.78c8.11-4.73,14.59-4.73,21.4-2.59
		c6.81,2.14,13.94,6.42,19,11.61c5.06,5.19,8.04,11.28,8.95,18.16c0.91,6.87-0.26,14.52-5.06,21.33
		c-4.8,6.81-13.23,12.77-20.36,23.8c-7.13,11.02-12.97,27.1-9.92,42.15s14.98,29.05,28.08,36.96c13.1,7.91,27.36,9.73,67.31-6.35
		c39.94-16.08,105.56-50.06,147.45-99.47s60.04-114.25,61.21-169.24c1.17-54.99-14.65-100.12-39.68-135.52s-59.27-61.08-113.6-69.9
		C330.67,1.04,315.83-0.11,300.27,0.01z M278.54,242.92c18.12,0,32.81,14.69,32.81,32.81c0,18.12-14.69,32.81-32.81,32.81h0
		c-18.12,0-32.81-14.69-32.81-32.81v0C245.73,257.61,260.42,242.92,278.54,242.92z"/>
	<path class="st1" d="M352.79,144.39c-6.91,0-12.47,5.56-12.47,12.47c0,1.02,0.13,2,0.36,2.94c9.88,21.85,23.07,43.45,33.27,61.88
		h53.42l30.04-56.12c1.63-2.84,3.1-5.99,3.15-8.71c0-6.91-5.56-12.47-12.47-12.47H352.79z M373.96,221.69v26.38
		c-0.01,0.21-0.01,0.42,0,0.62l0,0.08v7.03h0.27l6.95,181.6c13.67-8.79,27.32-18.67,40.11-29.6l5.8-152h0.3v-34.11L373.96,221.69z"
		/>
	
		<linearGradient id="SVGID_00000025406219962454623120000007948609471473999744_" gradientUnits="userSpaceOnUse" x1="6.2168" y1="6.6777" x2="6.3418" y2="6.6777" gradientTransform="matrix(-554.0127 1861.2338 -1861.2338 -554.0127 16305.2324 -7622.0513)">
		<stop  offset="0" style="stop-color:#78400A"/>
		<stop  offset="1" style="stop-color:#9A5605"/>
	</linearGradient>
	<path style="fill:url(#SVGID_00000025406219962454623120000007948609471473999744_);" d="M410.01,227.11
		c-9.63,0-36.51,9.63-36.05,21.58l9.34,244.06c0.46,11.95,7.75,19.25,17.38,19.25c9.63,0,16.92-7.3,17.38-19.25l9.3-244.02
		C427.8,236.78,419.63,227.11,410.01,227.11L410.01,227.11z"/>
	
		<linearGradient id="SVGID_00000025413930635949308450000012661642711860341643_" gradientUnits="userSpaceOnUse" x1="4.7894" y1="5.2072" x2="4.9144" y2="5.2072" gradientTransform="matrix(554.0084 -336.14 336.14 554.0084 -4034.8103 -1016.8958)">
		<stop  offset="0" style="stop-color:#ECECEC"/>
		<stop  offset="1" style="stop-color:#9396A0"/>
	</linearGradient>
	
		<rect x="373.96" y="221.69" style="fill:url(#SVGID_00000025413930635949308450000012661642711860341643_);" width="53.42" height="34.11"/>
	
		<linearGradient id="SVGID_00000175294828772047147240000007786370444072660096_" gradientUnits="userSpaceOnUse" x1="5.8684" y1="7.4" x2="5.9934" y2="7.4" gradientTransform="matrix(622.4863 622.4863 -622.4863 622.4863 1324.6011 -8118.8325)">
		<stop  offset="0" style="stop-color:#F0D69F"/>
		<stop  offset="1" style="stop-color:#C39360"/>
	</linearGradient>
	<path style="fill:url(#SVGID_00000175294828772047147240000007786370444072660096_);" d="M352.79,144.39
		c-6.91,0-12.47,5.56-12.47,12.47c0,1.02,0.13,2,0.36,2.94c9.88,21.85,23.07,43.45,33.27,61.88h53.42l30.04-56.12
		c1.63-2.84,3.1-5.99,3.14-8.71c0-6.91-5.56-12.47-12.47-12.47H352.79z"/>
	<circle class="st1" cx="87.3" cy="256.91" r="43.95"/>
	
		<linearGradient id="SVGID_00000044867524001440017280000003572918619421812905_" gradientUnits="userSpaceOnUse" x1="7.218" y1="5.2058" x2="7.343" y2="5.2058" gradientTransform="matrix(653.6053 653.6053 -653.6053 653.6053 -1268.0314 -7906.4316)">
		<stop  offset="0" style="stop-color:#DB5317"/>
		<stop  offset="1" style="stop-color:#C23807"/>
	</linearGradient>
	<circle style="fill:url(#SVGID_00000044867524001440017280000003572918619421812905_);" cx="87.12" cy="253.85" r="43.95"/>
	<circle class="st1" cx="143.42" cy="146.05" r="43.95"/>
	
		<linearGradient id="SVGID_00000030447084149181835480000014257997187076571579_" gradientUnits="userSpaceOnUse" x1="7.6793" y1="5.9917" x2="7.8043" y2="5.9917" gradientTransform="matrix(535.3341 653.6055 -653.6055 535.3341 -89.0219 -8129.5181)">
		<stop  offset="0" style="stop-color:#4FB412"/>
		<stop  offset="1" style="stop-color:#188313"/>
	</linearGradient>
	<circle style="fill:url(#SVGID_00000030447084149181835480000014257997187076571579_);" cx="143.24" cy="142.98" r="43.95"/>
	<circle class="st7" cx="264.46" cy="100.38" r="43.95"/>
	
		<linearGradient id="SVGID_00000054227635236046069500000015462036994424486558_" gradientUnits="userSpaceOnUse" x1="7.0879" y1="7.1985" x2="7.2129" y2="7.1985" gradientTransform="matrix(591.3574 529.1091 -529.1091 591.3574 -148.9553 -7937.2285)">
		<stop  offset="0" style="stop-color:#FDDD01"/>
		<stop  offset="1" style="stop-color:#F7A810"/>
	</linearGradient>
	<circle style="fill:url(#SVGID_00000054227635236046069500000015462036994424486558_);" cx="264.29" cy="97.32" r="43.95"/>
</g>
</svg>
